<svg xmlns="http://www.w3.org/2000/svg" viewBox="0 0 423.9 93.28"><defs><style>.cls-1,.cls-3{fill:#fff;}.cls-1,.cls-2,.cls-3{stroke:#fff;stroke-miterlimit:10;}.cls-2{fill:none;stroke-width:14px;}.cls-3{stroke-width:7px;}</style></defs><title>fitivator-logo-outlined</title><g id="Layer_1" data-name="Layer 1"><path class="cls-1" d="M294.1,135.27H321v10.6H308.68v3.47H321v10.22H308.68V172.7H294.1Z" transform="translate(-293.6 -133.72)"/><path class="cls-1" d="M339.69,172.7H325.11V135.27h14.58Z" transform="translate(-293.6 -133.72)"/><path class="cls-1" d="M343.86,135.27H379.3v12.14H368.87V172.7H354.29V147.41H343.86Z" transform="translate(-293.6 -133.72)"/><path class="cls-1" d="M398.05,172.7H383.47V135.27h14.58Z" transform="translate(-293.6 -133.72)"/><path class="cls-1" d="M418.46,135.27,424.3,147l5.44-11.75h13.73l-18.4,37.39a2.2,2.2,0,0,1-2.12,1.15,2.17,2.17,0,0,1-2.1-1.15l-19.38-37.39Z" transform="translate(-293.6 -133.72)"/><path class="cls-1" d="M444.85,172.7l18.61-35.53a5,5,0,0,1,3.54-2.53,8,8,0,0,1,1.85-.19,5.7,5.7,0,0,1,2.41.62,4.67,4.67,0,0,1,2.05,2l20,35.67h-19l-1.48-3.7H462.67l-1.27,3.7Zm19-11.13h7.57l-3.59-10.12Z" transform="translate(-293.6 -133.72)"/><path class="cls-1" d="M489.62,135.27h35.44v12.14H514.63V172.7H500.05V147.41H489.62Z" transform="translate(-293.6 -133.72)"/><path class="cls-1" d="M548.94,173.62a21.15,21.15,0,0,1-14.44-5.39,18.92,18.92,0,0,1-3.37-3.92,19.7,19.7,0,0,1-.24-20.67,19.56,19.56,0,0,1,7.55-6.94,21,21,0,0,1,9.81-2.48,26.84,26.84,0,0,1,8.94,1.36,20,20,0,0,1,6.74,3.9,18,18,0,0,1,4.51,6.22,20.16,20.16,0,0,1,1.64,8.32,18.29,18.29,0,0,1-2.93,10.26,19.53,19.53,0,0,1-7.8,6.91A23,23,0,0,1,548.94,173.62Zm6.4-24.12q0-4-3.8-4c-1.09,0-2.31.69-3.65,2.06a17,17,0,0,0-4.22,7.43,9.51,9.51,0,0,0-.38,2.51c0,2.59,1.32,3.89,3.94,3.89,1,0,2.24-.68,3.59-2.09a17.45,17.45,0,0,0,4.14-7.5A9,9,0,0,0,555.34,149.5Z" transform="translate(-293.6 -133.72)"/><path class="cls-1" d="M612.39,147.51q0,7.5-7.41,11.9l10.17,13.29H596.64l-6.59-10.85V172.7h-15.3V135.27q14.85-1.05,19.47-1.05a33.44,33.44,0,0,1,7,.56q6.66,1.53,9.52,6.52A12.78,12.78,0,0,1,612.39,147.51Zm-13.93-.4q0-3.3-2.46-3.3a8.27,8.27,0,0,0-2.93.77L590,145.87V155Q598.46,151.86,598.46,147.11Z" transform="translate(-293.6 -133.72)"/></g><g id="Layer_3" data-name="Layer 3"><polyline class="cls-2" points="7.89 38.78 7.89 56.78 423.89 56.78"/><line class="cls-3" x1="412.9" y1="29.28" x2="412.9" y2="85.28"/><line class="cls-3" x1="343.9" y1="22.28" x2="343.9" y2="93.28"/><line class="cls-3" x1="333.9" y1="29.28" x2="333.9" y2="85.28"/><line class="cls-3" x1="403.9" y1="22.28" x2="403.9" y2="93.28"/></g></svg>